# xmcd
#
# Track frame offsets:
#	182
#	20845
#	40407
#	51407
#	68807
#	84157
#	96045
#	113895
#	125870
#	138970
#	159182
#	183232
#
# Disc length: 2624 seconds
#
# Revision: 0
# Processed by: cddbd v1.5.1PL0 Copyright (c) Steve Scherf et al.
# Submitted via: dBpowerAMP V4.0
#
DISCID=a00a3e0c
DTITLE=Edmond Taniere - Cante Pou chez mineurs
DYEAR=1900
DGENRE=
TTITLE0=M'Lampiste
TTITLE1=Comme papa
TTITLE2=Ch'meneu d'quevaux
TTITLE3=Les molettes
TTITLE4=Al juot à l'guise
TTITLE5=Les femmes d'ach't'heure
TTITLE6=Les tomates
TTITLE7=Mélanie
TTITLE8=Eun' Goutt' ed' jus
TTITLE9=c'est loin tout ca
TTITLE10=gueles noires
TTITLE11=la billysienne
EXTD=Disques Déesse - Rene Chmiel
EXTT0=
EXTT1=
EXTT2=
EXTT3=
EXTT4=
EXTT5=
EXTT6=
EXTT7=
EXTT8=
EXTT9=
EXTT10=
EXTT11=
PLAYORDER=
